<?xml version="1.0" encoding="UTF-8" standalone="no" ?>
<!DOCTYPE svg PUBLIC "-//W3C//DTD SVG 1.1//EN" "http://www.w3.org/Graphics/SVG/1.1/DTD/svg11.dtd">
<svg xmlns="http://www.w3.org/2000/svg" xmlns:xlink="http://www.w3.org/1999/xlink" version="1.1" width="500" height="500" viewBox="0 0 500 500" xml:space="preserve">
<desc>Created with Fabric.js 5.3.0</desc>
<defs>
</defs>
<g transform="matrix(0 1.4078299231 -1.4078299258 0 369.4327797397 340.8807704724)" id="IIh8TnCpJuGZep8dxTxWi"  >
<path style="stroke: rgb(255,255,255); stroke-width: 2; stroke-dasharray: none; stroke-linecap: butt; stroke-dashoffset: 0; stroke-linejoin: miter; stroke-miterlimit: 4; fill: none; fill-rule: nonzero; opacity: 1;" vector-effect="non-scaling-stroke"  transform=" translate(-97.02702, -84.02787)" d="M 145.54038 0 L 194.05405 84.02787 L 145.54038 168.05574 L 48.51366 168.05574 L -0.000009999999996068709 84.02787 L 48.51366 0 z" stroke-linecap="round" />
</g>
<g transform="matrix(0 1.4078299231 -1.4078299258 0 131.431045541 340.8807786371)" id="7CJXwL4DrJQhg2crvHY_Z"  >
<path style="stroke: rgb(255,255,255); stroke-width: 2; stroke-dasharray: none; stroke-linecap: butt; stroke-dashoffset: 0; stroke-linejoin: miter; stroke-miterlimit: 4; fill: none; fill-rule: nonzero; opacity: 1;" vector-effect="non-scaling-stroke"  transform=" translate(-97.02702, -84.02787)" d="M 145.54038 0 L 194.05405 84.02787 L 145.54038 168.05574 L 48.51366 168.05574 L -0.000009999999996068709 84.02787 L 48.51366 0 z" stroke-linecap="round" />
</g>
<g transform="matrix(0 1.962521829 -1.4078299258 0 251.1358297496 218.3447349582)" id="uT15d66D0HjxgWD0LmkPh"  >
<path style="stroke: rgb(255,255,255); stroke-width: 2; stroke-dasharray: none; stroke-linecap: butt; stroke-dashoffset: 0; stroke-linejoin: miter; stroke-miterlimit: 4; fill: none; fill-rule: nonzero; opacity: 1;" vector-effect="non-scaling-stroke"  transform=" translate(0, 0)" d="M 48.51336 -84.02787 L 97.02703 0 L 48.51336 84.02787 L -48.51336 84.02787 L -97.02703 0 L -48.51336 -84.02787 z" stroke-linecap="round" />
</g>
<g transform="matrix(1.4078299258 0 0 1.4078299231 250.4319147867 201.913726044)" id="BqilZYlBxYsVumOAa18Bx"  >
<path style="stroke: rgb(255,255,255); stroke-width: 2; stroke-dasharray: none; stroke-linecap: butt; stroke-dashoffset: 0; stroke-linejoin: miter; stroke-miterlimit: 4; fill: rgb(255,255,255); fill-opacity: 0; fill-rule: nonzero; opacity: 1;" vector-effect="non-scaling-stroke"  transform=" translate(0, 0)" d="M -84.52787 0.68308 L 0.5 -49.72973 L 84.52787 0.6830799999999968 L -0.5 49.729729999999996 z" stroke-linecap="round" />
</g>
</svg>